<svg width="500" height="500" viewBox="0 0 500 500" fill="none" xmlns="http://www.w3.org/2000/svg">
<g clip-path="url(#clip0)">
<path d="M209.04 275.6C208.976 275.6 208.912 275.584 208.848 275.552C208.816 275.552 208.768 275.552 208.704 275.552C206.144 274.976 204.192 274.256 202.848 273.392C201.536 272.528 200.656 271.472 200.208 270.224C199.76 269.008 199.536 267.6 199.536 266V262.208C199.536 260.96 199.36 259.76 199.008 258.608C198.688 257.456 198.112 256.512 197.28 255.776C196.448 255.04 195.28 254.672 193.776 254.672H193.488C193.232 254.672 193.008 254.576 192.816 254.384C192.624 254.192 192.528 253.968 192.528 253.712C192.528 253.456 192.624 253.248 192.816 253.088C193.008 252.928 193.232 252.848 193.488 252.848H193.776C195.344 252.848 196.544 252.48 197.376 251.744C198.208 251.008 198.768 250.064 199.056 248.912C199.376 247.76 199.536 246.56 199.536 245.312V241.52C199.536 239.856 199.776 238.496 200.256 237.44C200.736 236.352 201.392 235.488 202.224 234.848C203.056 234.176 204.016 233.632 205.104 233.216C206.192 232.768 207.36 232.368 208.608 232.016C209.152 231.856 209.488 231.888 209.616 232.112C209.776 232.336 209.856 232.528 209.856 232.688C209.856 232.88 209.792 233.056 209.664 233.216C209.536 233.376 209.344 233.488 209.088 233.552C206.944 234.192 205.328 234.848 204.24 235.52C203.152 236.192 202.416 237.024 202.032 238.016C201.648 238.976 201.456 240.24 201.456 241.808V245.408C201.456 247.456 201.088 249.28 200.352 250.88C199.616 252.448 198.544 253.408 197.136 253.76L197.04 253.712C198.544 254.096 199.648 255.072 200.352 256.64C201.088 258.208 201.456 260.032 201.456 262.112V265.712C201.456 267.248 201.632 268.512 201.984 269.504C202.368 270.528 203.104 271.376 204.192 272.048C205.312 272.72 206.944 273.36 209.088 273.968C209.664 274.128 209.904 274.496 209.808 275.072C209.776 275.2 209.68 275.312 209.52 275.408C209.392 275.536 209.232 275.6 209.04 275.6ZM228.868 266C228.452 266 228.132 265.856 227.908 265.568C227.684 265.28 227.572 264.928 227.572 264.512V263.408C227.572 262.96 227.684 262.608 227.908 262.352C228.132 262.064 228.452 261.92 228.868 261.92H229.06C229.508 261.92 229.828 262.064 230.02 262.352C230.244 262.608 230.356 262.96 230.356 263.408V264.512C230.356 264.928 230.244 265.28 230.02 265.568C229.828 265.856 229.508 266 229.06 266H228.868ZM249.399 266C248.983 266 248.663 265.856 248.439 265.568C248.215 265.28 248.103 264.928 248.103 264.512V263.408C248.103 262.96 248.215 262.608 248.439 262.352C248.663 262.064 248.983 261.92 249.399 261.92H249.591C250.039 261.92 250.359 262.064 250.551 262.352C250.775 262.608 250.887 262.96 250.887 263.408V264.512C250.887 264.928 250.775 265.28 250.551 265.568C250.359 265.856 250.039 266 249.591 266H249.399ZM269.93 266C269.514 266 269.194 265.856 268.97 265.568C268.746 265.28 268.634 264.928 268.634 264.512V263.408C268.634 262.96 268.746 262.608 268.97 262.352C269.194 262.064 269.514 261.92 269.93 261.92H270.122C270.57 261.92 270.89 262.064 271.082 262.352C271.306 262.608 271.418 262.96 271.418 263.408V264.512C271.418 264.928 271.306 265.28 271.082 265.568C270.89 265.856 270.57 266 270.122 266H269.93ZM290.03 275.6C289.71 275.6 289.486 275.504 289.358 275.312C289.23 275.152 289.166 274.992 289.166 274.832C289.166 274.64 289.23 274.464 289.358 274.304C289.518 274.144 289.71 274.032 289.934 273.968C292.078 273.328 293.694 272.672 294.782 272C295.87 271.328 296.606 270.496 296.99 269.504C297.374 268.512 297.566 267.248 297.566 265.712V262.112C297.566 260.064 297.934 258.24 298.67 256.64C299.438 255.04 300.51 254.08 301.886 253.76L301.982 253.808C300.51 253.424 299.406 252.448 298.67 250.88C297.934 249.28 297.566 247.456 297.566 245.408V241.808C297.566 240.24 297.374 238.96 296.99 237.968C296.638 236.976 295.918 236.144 294.83 235.472C293.742 234.768 292.11 234.128 289.934 233.552C289.358 233.392 289.118 233.024 289.214 232.448C289.278 232.288 289.374 232.16 289.502 232.064C289.63 231.968 289.79 231.92 289.982 231.92C290.046 231.92 290.11 231.936 290.174 231.968C290.238 231.968 290.286 231.968 290.318 231.968C292.91 232.512 294.862 233.232 296.174 234.128C297.486 234.992 298.366 236.048 298.814 237.296C299.262 238.512 299.486 239.92 299.486 241.52V245.312C299.486 246.56 299.646 247.76 299.966 248.912C300.318 250.064 300.91 251.008 301.742 251.744C302.574 252.48 303.742 252.848 305.246 252.848H305.534C305.79 252.848 306.014 252.944 306.206 253.136C306.398 253.328 306.494 253.552 306.494 253.808C306.494 254.032 306.398 254.24 306.206 254.432C306.014 254.592 305.79 254.672 305.534 254.672H305.246C303.678 254.672 302.478 255.04 301.646 255.776C300.814 256.512 300.238 257.456 299.918 258.608C299.63 259.76 299.486 260.96 299.486 262.208V266C299.486 267.184 299.326 268.192 299.006 269.024C298.718 269.856 298.222 270.592 297.518 271.232C296.846 271.904 295.918 272.56 294.734 273.2C293.55 273.872 292.078 274.656 290.318 275.552C290.286 275.584 290.238 275.6 290.174 275.6C290.142 275.6 290.094 275.6 290.03 275.6Z" fill="white"/>
</g>
<defs>
<clipPath id="clip0">
<rect x="182" y="182" width="136" height="136" fill="white"/>
</clipPath>
</defs>
</svg>
