<svg width="124" height="34" viewBox="0 0 124 34" fill="none" xmlns="http://www.w3.org/2000/svg">
<path d="M35 27V16.6675C35 15.7792 35.3045 15.0234 35.9134 14.4C36.5375 13.761 37.2834 13.4416 38.1511 13.4416H45.5038V16.5039H38.7905C38.3643 16.5039 38.1207 16.5351 38.0598 16.5974C38.0141 16.6442 37.9913 16.8857 37.9913 17.3221V27H35Z" fill="white"/>
<path d="M47.1318 27V9H50.1231V13.4416H57.43C58.2977 13.4416 59.0361 13.761 59.645 14.4C60.2691 15.0234 60.5812 15.7792 60.5812 16.6675V23.774C60.5812 24.6623 60.2691 25.426 59.645 26.0649C59.0361 26.6883 58.2977 27 57.43 27H47.1318ZM50.9223 23.9377H56.7907C57.2169 23.9377 57.4529 23.9143 57.4985 23.8675C57.5594 23.8052 57.5899 23.5558 57.5899 23.1195V17.3221C57.5899 16.8857 57.5594 16.6442 57.4985 16.5974C57.4529 16.5351 57.2169 16.5039 56.7907 16.5039H50.9223C50.496 16.5039 50.2525 16.5351 50.1916 16.5974C50.1459 16.6442 50.1231 16.8857 50.1231 17.3221V23.1195C50.1231 23.5558 50.1459 23.8052 50.1916 23.8675C50.2525 23.9143 50.496 23.9377 50.9223 23.9377Z" fill="white"/>
<path d="M62.3164 27V13.4416H65.3077V27H62.3164ZM62.3164 12.0857V9H65.3077V12.0857H62.3164Z" fill="white"/>
<path d="M70.8644 27C69.9967 27 69.2508 26.6883 68.6267 26.0649C68.0178 25.426 67.7133 24.6623 67.7133 23.774V9.28052H70.7046V13.4416H75.8652V16.5039H70.7046V23.1195C70.7046 23.5558 70.7274 23.8052 70.7731 23.8675C70.834 23.9143 71.0776 23.9377 71.5038 23.9377H75.8652V27H70.8644Z" fill="white"/>
<path d="M77.8589 27V16.6675C77.8589 15.7792 78.1633 15.0234 78.7722 14.4C79.3964 13.761 80.1423 13.4416 81.01 13.4416H88.3626V16.5039H81.6494C81.2231 16.5039 80.9796 16.5351 80.9187 16.5974C80.873 16.6442 80.8502 16.8857 80.8502 17.3221V27H77.8589Z" fill="white"/>
<path d="M92.9618 27C92.0941 27 91.3482 26.6883 90.724 26.0649C90.1151 25.426 89.8107 24.6623 89.8107 23.774V16.6675C89.8107 15.7792 90.1151 15.0234 90.724 14.4C91.3482 13.761 92.0941 13.4416 92.9618 13.4416H100.109C100.977 13.4416 101.715 13.761 102.324 14.4C102.948 15.0234 103.26 15.7792 103.26 16.6675V23.774C103.26 24.6623 102.948 25.426 102.324 26.0649C101.715 26.6883 100.977 27 100.109 27H92.9618ZM93.6012 23.9377H99.4696C99.8958 23.9377 100.132 23.9143 100.177 23.8675C100.238 23.8052 100.269 23.5558 100.269 23.1195V17.3221C100.269 16.8857 100.238 16.6442 100.177 16.5974C100.132 16.5351 99.8958 16.5039 99.4696 16.5039H93.6012C93.1749 16.5039 92.9313 16.5351 92.8705 16.5974C92.8248 16.6442 92.802 16.8857 92.802 17.3221V23.1195C92.802 23.5558 92.8248 23.8052 92.8705 23.8675C92.9313 23.9143 93.1749 23.9377 93.6012 23.9377Z" fill="white"/>
<path d="M105.109 27V13.4416H115.408C116.275 13.4416 117.014 13.761 117.623 14.4C118.247 15.0234 118.559 15.7792 118.559 16.6675V27H115.568V17.3221C115.568 16.8857 115.537 16.6442 115.476 16.5974C115.431 16.5351 115.195 16.5039 114.768 16.5039H108.9C108.474 16.5039 108.23 16.5351 108.169 16.5974C108.124 16.6442 108.101 16.8857 108.101 17.3221V27H105.109Z" fill="white"/>
<path d="M121.009 27V23.9377H124V27H121.009Z" fill="white"/>
<g filter="url(#filter0_d)">
<path fill-rule="evenodd" clip-rule="evenodd" d="M6 0C2.68629 0 0 2.6863 0 6.00001V25.6559C0 28.9696 2.68629 31.6559 6 31.6559H26C29.3137 31.6559 32 28.9696 32 25.6559V6C32 2.68629 29.3137 0 26 0H6ZM4.12903 15.828C4.12903 9.21102 9.53139 3.82796 16.172 3.82796C22.8127 3.82796 28.2151 9.21102 28.2151 15.828C28.2151 22.4449 22.8127 27.828 16.172 27.828C9.53139 27.828 4.12903 22.4449 4.12903 15.828ZM4.93174 15.828C4.93174 22.0036 9.97426 27.0281 16.172 27.0281C22.3698 27.0281 27.4123 22.0036 27.4123 15.828C27.4123 9.65231 22.3698 4.6278 16.172 4.6278C9.97426 4.6278 4.93174 9.65231 4.93174 15.828ZM17.5133 24.7815V25.9728C19.3421 25.7352 21.0198 25.0176 22.416 23.9502L21.5715 23.1102C20.3774 23.9916 18.9834 24.5657 17.5133 24.7815ZM9.9257 23.9444C11.3204 25.0113 12.9967 25.7304 14.8245 25.9694V24.782C13.3206 24.5589 11.9376 23.9676 10.7687 23.1044H10.7648L9.9257 23.9444ZM15.4194 19.532V23.5418H16.9247V19.5325C17.4128 19.4342 17.8653 19.2417 18.266 18.976L21.115 21.8149L22.18 20.7538L19.3309 17.9149C19.5965 17.5162 19.7913 17.0633 19.8894 16.5784H23.9136V15.0784H19.8894C19.7908 14.5936 19.596 14.1441 19.3309 13.7459L22.18 10.906L21.115 9.84489L18.266 12.6847C17.8653 12.4191 17.4128 12.2241 16.9247 12.1259V8.11457H15.4194V12.1259C14.9396 12.2225 14.4833 12.411 14.0757 12.6809L11.2291 9.84441L10.1641 10.9055L13.0132 13.7454C12.748 14.1436 12.5543 14.5931 12.4562 15.078H8.43052V16.578H12.4562C12.5543 17.0633 12.7476 17.5162 13.0132 17.9144L10.1641 20.7533L11.2291 21.8144L14.0757 18.9794C14.4763 19.2446 14.9318 19.4338 15.4194 19.532ZM23.4746 21.2154L24.3176 22.0554C25.3908 20.6647 26.1134 18.9905 26.3537 17.1668H25.1582C24.9397 18.6338 24.3614 20.0244 23.4746 21.2154ZM5.99084 17.1663C6.23073 18.9881 6.95186 20.6594 8.0231 22.0491L8.86757 21.2076C8.00173 20.043 7.41124 18.6644 7.18786 17.1663H5.99084ZM8.02067 9.60683C6.94991 10.9965 6.22976 12.6678 5.99084 14.4891V14.4896H7.18786C7.41075 12.992 7.99882 11.613 8.86368 10.4483L8.02067 9.60683ZM23.4741 10.4439C24.3419 11.6101 24.9338 12.9896 25.1577 14.4891H26.3532C26.1129 12.6663 25.3893 10.9946 24.3171 9.60392L23.4741 10.4439ZM9.9223 7.71151L10.7653 8.55151C11.9342 7.68731 13.3201 7.09893 14.825 6.87489V5.68263C12.9962 5.92215 11.3174 6.64264 9.9223 7.71151ZM17.5133 6.87151C19.0182 7.0936 20.4017 7.68586 21.5715 8.54909H21.5754L22.416 7.70763C21.0198 6.64022 19.3426 5.9207 17.5133 5.68263V6.87151Z" fill="white"/>
</g>
<defs>
<filter id="filter0_d" x="0" y="0" width="34" height="33.6559" filterUnits="userSpaceOnUse" color-interpolation-filters="sRGB">
<feFlood flood-opacity="0" result="BackgroundImageFix"/>
<feColorMatrix in="SourceAlpha" type="matrix" values="0 0 0 0 0 0 0 0 0 0 0 0 0 0 0 0 0 0 127 0"/>
<feOffset dx="2" dy="2"/>
<feColorMatrix type="matrix" values="0 0 0 0 0 0 0 0 0 0 0 0 0 0 0 0 0 0 0.5 0"/>
<feBlend mode="normal" in2="BackgroundImageFix" result="effect1_dropShadow"/>
<feBlend mode="normal" in="SourceGraphic" in2="effect1_dropShadow" result="shape"/>
</filter>
</defs>
</svg>
