<svg width="500" height="500" viewBox="0 0 500 500" fill="none" xmlns="http://www.w3.org/2000/svg">
<path d="M122.125 229.375C122.125 227.097 123.972 225.25 126.25 225.25V225.25C128.528 225.25 130.375 227.097 130.375 229.375V270.625C130.375 272.903 128.528 274.75 126.25 274.75V274.75C123.972 274.75 122.125 272.903 122.125 270.625V229.375Z" fill="white"/>
<path d="M214.938 229.375C214.938 227.097 216.784 225.25 219.062 225.25V225.25C221.341 225.25 223.188 227.097 223.188 229.375V270.625C223.188 272.903 221.341 274.75 219.062 274.75V274.75C216.784 274.75 214.938 272.903 214.938 270.625V229.375Z" fill="white"/>
<path d="M144.812 210.813C144.812 208.534 146.659 206.688 148.938 206.688V206.688C151.216 206.688 153.062 208.534 153.062 210.812V287.125C153.062 289.403 151.216 291.25 148.938 291.25V291.25C146.659 291.25 144.812 289.403 144.812 287.125V210.813Z" fill="white"/>
<path d="M192.25 212.875C192.25 210.597 194.097 208.75 196.375 208.75V208.75C198.653 208.75 200.5 210.597 200.5 212.875V287.125C200.5 289.403 198.653 291.25 196.375 291.25V291.25C194.097 291.25 192.25 289.403 192.25 287.125V212.875Z" fill="white"/>
<path d="M237.625 212.875C237.625 210.597 239.472 208.75 241.75 208.75V208.75C244.028 208.75 245.875 210.597 245.875 212.875V287.125C245.875 289.403 244.028 291.25 241.75 291.25V291.25C239.472 291.25 237.625 289.403 237.625 287.125V212.875Z" fill="white"/>
<path d="M167.5 192.25C167.5 189.972 169.347 188.125 171.625 188.125V188.125C173.903 188.125 175.75 189.972 175.75 192.25V307.75C175.75 310.028 173.903 311.875 171.625 311.875V311.875C169.347 311.875 167.5 310.028 167.5 307.75V192.25Z" fill="white"/>
<path d="M254.125 229.375C254.125 227.097 255.972 225.25 258.25 225.25V225.25C260.528 225.25 262.375 227.097 262.375 229.375V270.625C262.375 272.903 260.528 274.75 258.25 274.75V274.75C255.972 274.75 254.125 272.903 254.125 270.625V229.375Z" fill="white"/>
<path d="M347 195C347 192.791 348.791 191 351 191V191C353.209 191 355 192.791 355 195V305C355 307.209 353.209 309 351 309V309C348.791 309 347 307.209 347 305V195Z" fill="white"/>
<path d="M277 222C277 219.791 278.791 218 281 218V218C283.209 218 285 219.791 285 222V276C285 278.209 283.209 280 281 280V280C278.791 280 277 278.209 277 276V222Z" fill="white"/>
<path d="M324.25 212.875C324.25 210.597 326.097 208.75 328.375 208.75V208.75C330.653 208.75 332.5 210.597 332.5 212.875V287.125C332.5 289.403 330.653 291.25 328.375 291.25V291.25C326.097 291.25 324.25 289.403 324.25 287.125V212.875Z" fill="white"/>
<path d="M369.625 212.875C369.625 210.597 371.472 208.75 373.75 208.75V208.75C376.028 208.75 377.875 210.597 377.875 212.875V287.125C377.875 289.403 376.028 291.25 373.75 291.25V291.25C371.472 291.25 369.625 289.403 369.625 287.125V212.875Z" fill="white"/>
<path d="M300 202C300 199.791 301.791 198 304 198V198C306.209 198 308 199.791 308 202V298C308 300.209 306.209 302 304 302V302C301.791 302 300 300.209 300 298V202Z" fill="white"/>
</svg>
