<svg width="500" height="500" viewBox="0 0 500 500" fill="none" xmlns="http://www.w3.org/2000/svg">
<path d="M133.75 211.25C133.75 206.97 137.22 203.5 141.5 203.5V203.5C145.78 203.5 149.25 206.97 149.25 211.25V288.75C149.25 293.03 145.78 296.5 141.5 296.5V296.5C137.22 296.5 133.75 293.03 133.75 288.75V211.25Z" fill="white"/>
<path d="M308.125 211.25C308.125 206.97 311.595 203.5 315.875 203.5V203.5C320.155 203.5 323.625 206.97 323.625 211.25V288.75C323.625 293.03 320.155 296.5 315.875 296.5V296.5C311.595 296.5 308.125 293.03 308.125 288.75V211.25Z" fill="white"/>
<path d="M176.375 176.375C176.375 172.095 179.845 168.625 184.125 168.625V168.625C188.405 168.625 191.875 172.095 191.875 176.375V319.75C191.875 324.03 188.405 327.5 184.125 327.5V327.5C179.845 327.5 176.375 324.03 176.375 319.75V176.375Z" fill="white"/>
<path d="M265.5 180.25C265.5 175.97 268.97 172.5 273.25 172.5V172.5C277.53 172.5 281 175.97 281 180.25V319.75C281 324.03 277.53 327.5 273.25 327.5V327.5C268.97 327.5 265.5 324.03 265.5 319.75V180.25Z" fill="white"/>
<path d="M350.75 180.25C350.75 175.97 354.22 172.5 358.5 172.5V172.5C362.78 172.5 366.25 175.97 366.25 180.25V319.75C366.25 324.03 362.78 327.5 358.5 327.5V327.5C354.22 327.5 350.75 324.03 350.75 319.75V180.25Z" fill="white"/>
<path d="M219 141.5C219 137.22 222.47 133.75 226.75 133.75V133.75C231.03 133.75 234.5 137.22 234.5 141.5V358.5C234.5 362.78 231.03 366.25 226.75 366.25V366.25C222.47 366.25 219 362.78 219 358.5V141.5Z" fill="white"/>
</svg>
