<svg width="500" height="500" viewBox="0 0 500 500" fill="none" xmlns="http://www.w3.org/2000/svg">
<path d="M323.896 313.746C325.255 313.746 326.6 313.479 327.856 312.959C329.111 312.44 330.252 311.677 331.212 310.717C332.173 309.756 332.935 308.615 333.454 307.36C333.974 306.104 334.241 304.759 334.24 303.4V196.6C334.241 195.241 333.974 193.896 333.454 192.64C332.935 191.385 332.173 190.244 331.212 189.283C330.252 188.323 329.111 187.56 327.856 187.041C326.6 186.521 325.255 186.254 323.896 186.254H176.106C174.747 186.254 173.402 186.521 172.146 187.041C170.891 187.56 169.75 188.322 168.789 189.283C167.828 190.244 167.066 191.385 166.546 192.64C166.027 193.896 165.759 195.241 165.76 196.6V303.4C165.759 304.759 166.027 306.104 166.546 307.36C167.066 308.615 167.828 309.756 168.789 310.717C169.75 311.678 170.891 312.44 172.146 312.959C173.402 313.479 174.747 313.746 176.106 313.746H323.896ZM323.896 303.4H176.106V196.6H323.896V303.4Z" fill="white"/>
<path d="M280.824 250.599L255.905 264.978L230.999 279.365V221.841L255.905 236.23L280.824 250.599Z" fill="white"/>
</svg>
